<svg xmlns="http://www.w3.org/2000/svg" enable-background="new 0 0 64 64" viewBox="0 0 64 64" id="dictionary"><path d="M10.282 24.866c1.029.395 2.188-.117 2.584-1.148L13.527 22h4.945l.661 1.718c.306.795 1.063 1.283 1.867 1.283.239 0 .481-.044.717-.135 1.031-.396 1.545-1.553 1.149-2.584l-5-13C17.57 8.51 16.828 8 16 8s-1.57.51-1.867 1.282l-5 13C8.737 23.313 9.251 24.47 10.282 24.866zM16.934 18h-1.868L16 15.571 16.934 18zM35 12h5.73l-7.267 8.72c-.497.596-.604 1.426-.274 2.129C33.518 23.551 34.224 24 35 24h10c1.104 0 2-.896 2-2s-.896-2-2-2h-5.73l7.267-8.72c.497-.596.604-1.426.274-2.129C46.482 8.449 45.776 8 45 8H35c-1.104 0-2 .896-2 2S33.896 12 35 12zM26 19h4c1.104 0 2-.896 2-2s-.896-2-2-2h-4c-1.104 0-2 .896-2 2S24.896 19 26 19zM40 28H16c-1.654 0-3 1.346-3 3v8c0 1.654 1.346 3 3 3h24c1.654 0 3-1.346 3-3v-8C43 29.346 41.654 28 40 28zM39 38H17v-6h22V38z"></path><path d="M55,6h-1V3c0-1.104-0.896-2-2-2H10C5.589,1,2,4.589,2,9v44c0,4.411,3.589,8,8,8c0,1.104,0.896,2,2,2s2-0.896,2-2h38
			c1.104,0,2-0.896,2-2V47v-8h4c2.206,0,4-1.794,4-4v-9V13C62,9.141,58.86,6,55,6z M55,10c1.654,0,3,1.346,3,3v6.685
			C57.089,19.251,56.075,19,55,19h-1v-9H55z M48,53c0-1.478,0.805-2.771,2-3.463v6.926C48.805,55.771,48,54.478,48,53z M10,5h40v40
			H10c-1.458,0-2.822,0.398-4,1.082V9C6,6.794,7.794,5,10,5z M12,51c-1.104,0-2,0.896-2,2v4c-2.206,0-4-1.794-4-4s1.794-4,4-4
			h35.082C44.398,50.178,44,51.542,44,53s0.398,2.822,1.082,4H14v-4C14,51.896,13.104,51,12,51z M54,35V23h1c1.654,0,3,1.346,3,3
			l0.002,9H54z"></path></svg>