<?xml version="1.0" ?><svg viewBox="0 0 64 64" xmlns="http://www.w3.org/2000/svg"><title/><g data-name="24-Spreading" id="_24-Spreading"><circle cx="6" cy="4" r="3" style="fill:#34c1ad"/><path d="M6,7a5,5,0,0,1,5,5v5a2.006,2.006,0,0,1-2,2v6a2.006,2.006,0,0,1-2,2H5a2.006,2.006,0,0,1-2-2V19a2.006,2.006,0,0,1-2-2V12A5,5,0,0,1,6,7Z" style="fill:#34c1ad"/><circle cx="6" cy="40" r="3" style="fill:#34c1ad"/><path d="M6,43a5,5,0,0,1,5,5v5a2.006,2.006,0,0,1-2,2v6a2.006,2.006,0,0,1-2,2H5a2.006,2.006,0,0,1-2-2V55a2.006,2.006,0,0,1-2-2V48A5,5,0,0,1,6,43Z" style="fill:#34c1ad"/><path d="M58,43a5,5,0,0,1,5,5v5a2.006,2.006,0,0,1-2,2v6a2.006,2.006,0,0,1-2,2H57a2.006,2.006,0,0,1-2-2V55a2.006,2.006,0,0,1-2-2V48A5,5,0,0,1,58,43Z" style="fill:#34c1ad"/><circle cx="58" cy="40" r="3" style="fill:#34c1ad"/><circle cx="58" cy="4" r="3" style="fill:#34c1ad"/><path d="M58,7a5,5,0,0,1,5,5v5a2.006,2.006,0,0,1-2,2v6a2.006,2.006,0,0,1-2,2H57a2.006,2.006,0,0,1-2-2V19a2.006,2.006,0,0,1-2-2V12A5,5,0,0,1,58,7Z" style="fill:#34c1ad"/><path d="M4,2c0-.083.018-.162.024-.244A2.992,2.992,0,1,0,8.976,4.244,2.989,2.989,0,0,1,4,2Z" style="fill:#21abab"/><path d="M5,25V19a2.006,2.006,0,0,1-2-2V12A5,5,0,0,1,7,7.1,5,5,0,0,0,1,12v5a2.006,2.006,0,0,0,2,2v6a2.006,2.006,0,0,0,2,2H7A2.006,2.006,0,0,1,5,25Z" style="fill:#21abab"/><path d="M4,38c0-.083.018-.162.024-.244a2.992,2.992,0,1,0,4.952,2.488A2.989,2.989,0,0,1,4,38Z" style="fill:#21abab"/><path d="M5,61V55a2.006,2.006,0,0,1-2-2V48a5,5,0,0,1,4-4.9A5,5,0,0,0,1,48v5a2.006,2.006,0,0,0,2,2v6a2.006,2.006,0,0,0,2,2H7A2.006,2.006,0,0,1,5,61Z" style="fill:#21abab"/><path d="M56,2c0-.083.018-.162.024-.244a2.992,2.992,0,1,0,4.952,2.488A2.989,2.989,0,0,1,56,2Z" style="fill:#21abab"/><path d="M57,25V19a2.006,2.006,0,0,1-2-2V12a5,5,0,0,1,4-4.9A5,5,0,0,0,53,12v5a2.006,2.006,0,0,0,2,2v6a2.006,2.006,0,0,0,2,2h2A2.006,2.006,0,0,1,57,25Z" style="fill:#21abab"/><path d="M56,38c0-.083.018-.162.024-.244a2.992,2.992,0,1,0,4.952,2.488A2.989,2.989,0,0,1,56,38Z" style="fill:#21abab"/><path d="M57,61V55a2.006,2.006,0,0,1-2-2V48a5,5,0,0,1,4-4.9A5,5,0,0,0,53,48v5a2.006,2.006,0,0,0,2,2v6a2.006,2.006,0,0,0,2,2h2A2.006,2.006,0,0,1,57,61Z" style="fill:#21abab"/><circle cx="32" cy="21" r="4" style="fill:#e7544c"/><path d="M37,32v5a2.006,2.006,0,0,1-2,2v6a2.006,2.006,0,0,1-2,2H31a2.006,2.006,0,0,1-2-2V39a2.006,2.006,0,0,1-2-2V32a5,5,0,0,1,10,0Z" style="fill:#e7544c"/><path d="M30,19a3.984,3.984,0,0,1,.359-1.641,4,4,0,1,0,5.282,5.282A3.987,3.987,0,0,1,30,19Z" style="fill:#c74841"/><path d="M31,45V39a2.006,2.006,0,0,1-2-2V32a5,5,0,0,1,4-4.9A5,5,0,0,0,27,32v5a2.006,2.006,0,0,0,2,2v6a2.006,2.006,0,0,0,2,2h2A2.006,2.006,0,0,1,31,45Z" style="fill:#c74841"/><circle cx="32" cy="21" r="4" style="fill:none;stroke:#000;stroke-linejoin:round;stroke-width:2px"/><path d="M32,27a5,5,0,0,0-5,5v5a2,2,0,0,0,2,2v6a2,2,0,0,0,2,2h2a2,2,0,0,0,2-2V39a2,2,0,0,0,2-2V32A5,5,0,0,0,32,27Z" style="fill:none;stroke:#000;stroke-linejoin:round;stroke-width:2px"/><circle cx="58" cy="40" r="3" style="fill:none;stroke:#000;stroke-linejoin:round;stroke-width:2px"/><path d="M58,43a5,5,0,0,0-5,5v5a2,2,0,0,0,2,2v6a2,2,0,0,0,2,2h2a2,2,0,0,0,2-2V55a2,2,0,0,0,2-2V48A5,5,0,0,0,58,43Z" style="fill:none;stroke:#000;stroke-linejoin:round;stroke-width:2px"/><circle cx="58" cy="4" r="3" style="fill:none;stroke:#000;stroke-linejoin:round;stroke-width:2px"/><path d="M58,7a5,5,0,0,0-5,5v5a2,2,0,0,0,2,2v6a2,2,0,0,0,2,2h2a2,2,0,0,0,2-2V19a2,2,0,0,0,2-2V12A5,5,0,0,0,58,7Z" style="fill:none;stroke:#000;stroke-linejoin:round;stroke-width:2px"/><circle cx="6" cy="40" r="3" style="fill:none;stroke:#000;stroke-linejoin:round;stroke-width:2px"/><path d="M6,43a5,5,0,0,0-5,5v5a2,2,0,0,0,2,2v6a2,2,0,0,0,2,2H7a2,2,0,0,0,2-2V55a2,2,0,0,0,2-2V48A5,5,0,0,0,6,43Z" style="fill:none;stroke:#000;stroke-linejoin:round;stroke-width:2px"/><circle cx="6" cy="4" r="3" style="fill:none;stroke:#000;stroke-linejoin:round;stroke-width:2px"/><path d="M6,7a5,5,0,0,0-5,5v5a2,2,0,0,0,2,2v6a2,2,0,0,0,2,2H7a2,2,0,0,0,2-2V19a2,2,0,0,0,2-2V12A5,5,0,0,0,6,7Z" style="fill:none;stroke:#000;stroke-linejoin:round;stroke-width:2px"/><polyline points="18 13 14 13 24 27" style="fill:none;stroke:#000;stroke-linejoin:round;stroke-width:2px"/><polyline points="46 13 50 13 40 27" style="fill:none;stroke:#000;stroke-linejoin:round;stroke-width:2px"/><polyline points="46 55 50 55 40 41" style="fill:none;stroke:#000;stroke-linejoin:round;stroke-width:2px"/><polyline points="18 55 14 55 24 41" style="fill:none;stroke:#000;stroke-linejoin:round;stroke-width:2px"/><line style="fill:none;stroke:#000;stroke-linejoin:round;stroke-width:2px" x1="50" x2="50" y1="51" y2="55"/><line style="fill:none;stroke:#000;stroke-linejoin:round;stroke-width:2px" x1="14" x2="14" y1="51" y2="55"/><line style="fill:none;stroke:#000;stroke-linejoin:round;stroke-width:2px" x1="50" x2="50" y1="13" y2="17"/><line style="fill:none;stroke:#000;stroke-linejoin:round;stroke-width:2px" x1="14" x2="14" y1="13" y2="17"/></g></svg>